<?xml version="1.0" encoding="utf-8"?>
<!-- Generator: Adobe Illustrator 28.0.0, SVG Export Plug-In . SVG Version: 6.00 Build 0)  -->
<svg version="1.1" id="パス" xmlns="http://www.w3.org/2000/svg" xmlns:xlink="http://www.w3.org/1999/xlink" x="0px" y="0px"
	 viewBox="0 0 1883.5 725.8" style="enable-background:new 0 0 1883.5 725.8;" xml:space="preserve">
<g>
	<path d="M62,463c-2.8,5.9-6.9,8.6-12.2,2.7c-14.2-16.6-17.5-37-11-74c14.7-81.5,47.6-204.8,67.6-255.2c3.3-8,7.3-8.6,10.2-2.1
		c6.9,15.6,7.7,34.9-4.1,76.1C99,258.7,79,328.4,61.5,404.6C99.4,323,162.1,210.4,204,143.4c2.8-4.3,6.9-5.9,10.2,0.5
		c8.1,15.6,10.2,29,0,69.7c-13,50.4-30.1,115.8-45.6,193.6c41.1-88.5,120.1-226.3,155.9-276.7c4.9-6.4,9-5.4,9.8,2.1
		c2.4,18.8-2.8,41.8-23.6,77.8c-29.7,51.5-90,150.1-139.2,249.9c-3.3,6.4-6.9,9.1-12.2,2.7c-13.8-16.6-18.7-35.9-12.6-74
		c6.5-39.7,20.4-98.7,33.8-149.1C143.8,303.2,96.6,390.6,62,463z"/>
	<path d="M546.3,348.8c-8.5,45.6-33.8,99.7-63.5,112.6c-14.7,6.4-35.4,5.4-51.3-22.5c-14.7-25.7-13.4-61.7-2.4-97.6
		c-7.7,4.8-16.3,7-25.2,7c-8.5,46.1-33.8,100.3-63.9,113.1c-14.7,6.4-34.6,5.4-50.9-22.5c-18.3-31.6-11.8-78.8,6.1-120.7
		c15.9-36.5,40.7-67,65.1-69.7c12.2-1.6,19.1,2.7,27.3,17.7c9.4,17.2,21.6,20.4,19.5,59c0,2.7-0.4,5.4-0.4,8
		c16.3-3.2,31.7-20.9,44-40.8c15.1-24.7,33.4-42.4,52.1-44c12.2-1.1,19.1,3.2,27.3,17.7c9.8,17.2,21.6,20.4,19.5,59
		c-0.4,4.3-0.4,8-1.2,12.3c2.8,0,5.3,0,7.7-0.5c3.7-1.1,3.7,2.7,1.6,5.4C555.3,346.1,551.2,348.2,546.3,348.8z M319.6,338.6
		c-17.5,40.2-23.6,90.1-12.2,101.9c11,11.3,35.4-7,55.4-55.2c6.5-16.1,11.8-31.1,14.7-44.5c-13-9.1-26.5-29.5-26.5-52
		C340,300,328.6,318.2,319.6,338.6z M370.9,289.8c-1.6,15,1.6,29,9.8,37c2.8-16.1,3.3-29.5,2.4-39.1
		C381.5,270.5,372.5,273.7,370.9,289.8z M512.5,335.4c-9.4-8.6-19.1-27.3-19.1-46.7c-11,11.3-22.4,29.5-31.3,49.9
		c-17.5,40.2-22.4,90.1-12.2,101.9c10.6,12.3,35.4-7,55.4-55.2c6.5-15.6,11.4-30.6,14.7-44C517,340.2,514.6,338.1,512.5,335.4z
		 M525.6,287.7c-1.6-17.2-9.8-13.9-11.8,1.6c-2,14.5,2.8,30,9.4,38.1C526,310.7,526.4,297.3,525.6,287.7z"/>
	<path d="M672.5,451.7c16.7-1.1,38.7-37,52.9-74c2-4.8,4.9-4.8,6.5-0.5c1.6,4.8,2,18.8-3.3,33.2c-11,29.5-36.2,57.9-58.6,56.3
		c-22-1.6-33-17.7-33-42.9c-13,21.4-31.3,41.3-50.5,41.3c-37.9,0-45.2-68.1-11.8-132.5c32.2-62.2,64.7-86.3,85.1-86.3
		c16.7,0,24.8,16.6,24.4,36.5c22-55.2,52.9-128.2,67.6-155.5c4.1-7.5,7.7-7,9.8,0c5.7,17.7,4.5,40.8-12.6,81
		c-19.5,46.1-58.6,134.6-79,191.4C659.1,430.8,658.7,452.8,672.5,451.7z M601.7,354.1c-22,46.1-26.5,92.8-10.6,93.3
		c16.3,0.5,38.3-31.1,57.4-79.9c23.6-59.5,29.7-93.3,17.9-93.8C653.8,273.2,624.1,307,601.7,354.1z"/>
	<path d="M829.6,263.5c4.9-4.3,8.1-5.4,11-1.1c7.7,11.3,17.5,34.9,5.7,52.6c-18.3,27.3-38.3,61.1-44.8,89
		c-6.5,27.9-1.6,48.8,10.2,49.3c15.9,1.1,35.4-32.2,48.4-70.8c1.6-4.3,4.1-4.8,5.7-0.5c2,5.9,2.4,18.8-2,33.2
		c-9.4,31.1-33,53.6-54.5,52.6c-29.3-1.6-41.1-37-30.9-77.2c9-35.4,32.6-73.5,48.8-98.1c-17.9,15.6-35.4,20.4-47.6,20.4
		c-15.5,37.5-54.5,113.7-62.3,162.5c-0.8,4.8-3.3,7.5-6.9,2.7c-11.8-16.1-11.8-40.8-0.8-68.1c9.4-23.6,36.6-74,51.7-102.4
		c-23.2-19.8,12.2-83.1,27.3-83.7c12.6-0.5,9.4,30.6-0.8,64.3C800.7,286,814.5,277.5,829.6,263.5z"/>
	<path d="M933.8,477.5c-22.8,71.9-51.7,158.2-85.5,175.4c-7.7,3.8-15.5,3.8-23.2-11.3c-8.1-16.1-16.3-34.9-8.1-66.5
		c12.2-48.3,46.8-80.4,87.1-101.4c4.1-12.3,8.1-25.7,12.6-38.6c-12.6,17.2-28.1,31.1-44.4,29.5c-29.3-3.2-30.1-42.4-20.8-77.8
		c9-34.3,28.9-87.4,55.4-135.7c3.3-5.9,7.3-5.4,10.2,0c9.8,17.2,7.3,39.7-7.7,71.3c-14.7,31.1-23.6,53.1-31.3,78.3
		c-8.1,26.3-7.3,45,2,46.1c15.9,1.6,36.2-32.7,57-79.4c17.5-39.7,35-87.9,49.3-115.3c3.7-7,6.5-8,10.2-3.8c5.7,9.7,9,32.7-1.6,60.1
		c-12.2,31.1-37,95.4-54.1,147.5c31.7-22.5,55.8-53.1,72-82.6c2-3.8,5.7-4.3,6.5,1.1c0.8,4.8-0.4,17.2-7.3,31.1
		C996.1,438.9,967.6,459.2,933.8,477.5z M833.3,623.3c5.3,10.2,38.7-48.3,63.9-127.1C844.2,536.5,825.9,609.9,833.3,623.3z"/>
	<path d="M1035.1,397c16.3,17.2,44,45,70.4,45c11.4,0,19.9-3.8,25.2-9.7c6.9-10.2,4.9-21.5-0.8-27.9
		c-21.6-24.1-85.9-57.4-85.9-112.6c0-73.5,63.1-136.2,99.3-156.6c19.5-10.7,39.1-15,52.5,1.1c10.2,12.3,17.5,30,20.4,45
		c4.1,21.4-5.7,42.4-11.8,53.6c-10.6,18.8-22.4,46.1-28.1,59.5c-2,4.8-4.5,7.5-9,1.6c-7.7-10.2-12.6-26.8-4.1-52
		c8.5-25.7,39.1-70.2,29.3-83.7c-13.8-18.8-114,63.3-116,130.3c-1.2,34.9,50.9,63.3,73.7,84.7c15.5,14.5,13.4,39.1-4.5,66.5
		c-24.4,37-95.2,47.2-152.6-44c-4.5-7-2.8-10.7,0.8-12.3C1007.5,380.4,1024.1,385.2,1035.1,397z"/>
	<path d="M1402.7,465.7c-30.9-2.1-43.1-38.6-33-82c8.5-35.9,33-75.6,50.5-101.3c-17.9,15-36.2,20.4-48.8,20.4
		c-33.8,93.3-77.7,160.9-126.2,161.9c-51.7,1.1-69.2-65.4-42.7-134.1c25.6-66.5,67.2-96.5,87.5-81c10.2,8,17.5,15.6,24,27.3
		c6.9,12.9,2.8,44.5-13.4,71.9c-19.1,32.7-46.4,46.1-74.9,16.1c-13,48.8-2.8,83.7,17.9,84.7c44.8,2.7,89.5-82,111.9-150.1
		c-31.3-17.2,8.5-88.5,25.6-89.6c12.6-0.5,8.5,32.2-1.6,67c14.2-2.7,28.5-11.3,44.4-25.2c4.9-4.3,8.5-7,11.4-1.6
		c8.1,11.8,18.3,37.5,6.1,55.2c-19.1,27.9-39.9,64.3-46.8,93.3c-6.9,29.5-2,50.9,10.2,51.5c17.1,1.1,37.9-34.3,50.9-74
		c1.6-4.3,4.5-5.4,6.1-0.5c2,5.9,2.8,19.8-2,34.9C1449.5,442.6,1425.1,467.3,1402.7,465.7z M1277.3,326.8c13-22,21.6-49.9,16.3-55.8
		c-9-10.2-42.3,23.6-61.1,72.9c-1.2,2.7-2,6.4-3.3,9.1C1249.2,369.2,1265.1,347.2,1277.3,326.8z"/>
	<path d="M1589.1,247.4c4.5-5.9,6.9-4.8,7.7,2.1c1.2,11.3-3.7,25.2-16.7,46.7c-20.4,33.8-57.4,85.3-96.5,166.8c-2,4.3-4.1,8-8.1,5.4
		c-15.9-10.2-21.6-20.9-20.4-49.3c1.6-37.5,12.6-114.2,26.5-170c1.6-5.9,4.9-8,8.1-4.3c13.4,15,15.5,34.9,9.8,67.6
		c-7.3,41.3-15.5,71.3-21.2,129.8C1507.3,379.3,1561.4,285,1589.1,247.4z"/>
	<path d="M1787.3,465.7c-30.9-2.1-43.1-38.6-33-82c8.5-35.9,33-75.6,50.5-101.3c-17.9,15-36.2,20.4-48.8,20.4
		c-33.8,93.3-77.7,160.9-126.2,161.9c-51.7,1.1-69.2-65.4-42.7-134.1c25.6-66.5,67.2-96.5,87.5-81c10.2,8,17.5,15.6,24,27.3
		c6.9,12.9,2.8,44.5-13.4,71.9c-19.1,32.7-46.4,46.1-74.9,16.1c-13,48.8-2.8,83.7,17.9,84.7c44.8,2.7,89.5-82,111.9-150.1
		c-31.3-17.2,8.5-88.5,25.6-89.6c12.6-0.5,8.5,32.2-1.6,67c14.2-2.7,28.5-11.3,44.4-25.2c4.9-4.3,8.5-7,11.4-1.6
		c8.1,11.8,18.3,37.5,6.1,55.2c-19.1,27.9-39.9,64.3-46.8,93.3c-6.9,29.5-2,50.9,10.2,51.5c17.1,1.1,37.9-34.3,50.9-74
		c1.6-4.3,4.5-5.4,6.1-0.5c2,5.9,2.8,19.8-2,34.9C1834.1,442.6,1809.7,467.3,1787.3,465.7z M1661.9,326.8c13-22,21.6-49.9,16.3-55.8
		c-9-10.2-42.3,23.6-61.1,72.9c-1.2,2.7-2,6.4-3.3,9.1C1633.9,369.2,1649.7,347.2,1661.9,326.8z"/>
</g>
</svg>
